# xmcd
#
# Track frame offsets:
#	150
#	13176
#	25635
#	43714
#	53008
#	67248
#	78783
#	89346
#	100983
#	115582
#	130976
#	145664
#	154398
#	165512
#
# Disc length: 2445 seconds
#
# Revision: 0
# Processed by: cddbd v1.5.2PL0 Copyright (c) Steve Scherf et al.
# Submitted via: dBpowerAMP V4.0
#
DISCID=b0098b0e
DTITLE=Hello Trouble - Hello Trouble
DYEAR=2011
DGENRE=Country
TTITLE0=You're The Only One
TTITLE1=Move To Austin
TTITLE2=I Hate You-/ I Love You
TTITLE3=California Home
TTITLE4=On Paper
TTITLE5=I've come Awful Close
TTITLE6=Shane On Me
TTITLE7=The Upside
TTITLE8=Women Do Funny Things To Me
TTITLE9=Doin' Nothin'
TTITLE10=Side Effect Of Love
TTITLE11=Just Fine
TTITLE12=Don't Test Me
TTITLE13=Ain't Had No Lovin
EXTD=
EXTT0=
EXTT1=
EXTT2=
EXTT3=
EXTT4=
EXTT5=
EXTT6=
EXTT7=
EXTT8=
EXTT9=
EXTT10=
EXTT11=
EXTT12=
EXTT13=
PLAYORDER=
